HIERARCHY
ROOT SpineBase
{
  OFFSET 0.000000 0.000000 0.000000
  CHANNELS 6 Xposition Yposition Zposition Zrotation Xrotation Yrotation
  JOINT SpineMid
  {
    OFFSET -0.000000 31.833070 0.000000
    CHANNELS 3 Zrotation Xrotation Yrotation
    JOINT SpineShoulder
    {
      OFFSET 0.056261 23.621725 -0.784193
      CHANNELS 3 Zrotation Xrotation Yrotation
      JOINT Neck
      {
        OFFSET 0.055028 7.803638 -0.587598
        CHANNELS 3 Zrotation Xrotation Yrotation
        JOINT Head
        {
          OFFSET -4.807291 13.128442 0.779219
          CHANNELS 3 Zrotation Xrotation Yrotation
          End Site
          {
            OFFSET 0 0 0
          }
        }
      }
      JOINT ShoulderLeft
      {
        OFFSET -16.216210 -3.990132 9.409907
        CHANNELS 3 Zrotation Xrotation Yrotation
        JOINT ElbowLeft
        {
          OFFSET -2.354076 -27.824893 1.650279
          CHANNELS 3 Zrotation Xrotation Yrotation
          JOINT WristLeft
          {
            OFFSET 0.627127 -25.511879 -2.415231
            CHANNELS 3 Zrotation Xrotation Yrotation
            JOINT HandLeft
            {
              OFFSET -0.703150 -5.443009 0.224187
              CHANNELS 3 Zrotation Xrotation Yrotation
              JOINT HandTipLeft
              {
                OFFSET 0.852910 -8.362523 1.257158
                CHANNELS 3 Zrotation Xrotation Yrotation
                End Site
                {
                  OFFSET 0 0 0
                }
              }
              JOINT ThumbLeft
              {
                OFFSET 2.750502 0.988597 -0.468260
                CHANNELS 3 Zrotation Xrotation Yrotation
                End Site
                {
                  OFFSET 0 0 0
                }
              }
            }
          }
        }
      }
      JOINT ShoulderRight
      {
        OFFSET 12.419923 -3.614670 -8.366769
        CHANNELS 3 Zrotation Xrotation Yrotation
        JOINT ElbowRight
        {
          OFFSET 8.023349 -27.033238 -4.328456
          CHANNELS 3 Zrotation Xrotation Yrotation
          JOINT WristRight
          {
            OFFSET 2.152970 -21.266800 -6.302928
            CHANNELS 3 Zrotation Xrotation Yrotation
            JOINT HandRight
            {
              OFFSET -0.424792 -7.589598 -0.961260
              CHANNELS 3 Zrotation Xrotation Yrotation
              JOINT HandTipRight
              {
                OFFSET 0.135555 -6.679466 -0.667909
                CHANNELS 3 Zrotation Xrotation Yrotation
                End Site
                {
                  OFFSET 0 0 0
                }
              }
              JOINT ThumbRight
              {
                OFFSET 3.014992 -0.414720 -1.362956
                CHANNELS 3 Zrotation Xrotation Yrotation
                End Site
                {
                  OFFSET 0 0 0
                }
              }
            }
          }
        }
      }
    }
  }
  JOINT HipLeft
  {
    OFFSET -6.492025 -0.142292 -0.279670
    CHANNELS 3 Zrotation Xrotation Yrotation
    JOINT KneeLeft
    {
      OFFSET 4.199245 -34.831378 5.563408
      CHANNELS 3 Zrotation Xrotation Yrotation
      JOINT AnkleLeft
      {
        OFFSET 10.405460 -37.412399 12.030028
        CHANNELS 3 Zrotation Xrotation Yrotation
        JOINT FootLeft
        {
          OFFSET -2.269655 -8.106390 -5.018044
          CHANNELS 3 Zrotation Xrotation Yrotation
          End Site
          {
            OFFSET 0 0 0
          }
        }
      }
    }
  }
  JOINT HipRight
  {
    OFFSET 7.106362 1.750156 -6.706390
    CHANNELS 3 Zrotation Xrotation Yrotation
    JOINT KneeRight
    {
      OFFSET 8.016611 -35.245179 0.534340
      CHANNELS 3 Zrotation Xrotation Yrotation
      JOINT AnkleRight
      {
        OFFSET 5.487865 -36.275390 11.453835
        CHANNELS 3 Zrotation Xrotation Yrotation
        JOINT FootRight
        {
          OFFSET -1.367246 -8.452219 -3.600008
          CHANNELS 3 Zrotation Xrotation Yrotation
          End Site
          {
            OFFSET 0 0 0
          }
        }
      }
    }
  }
}
MOTION
Frames: 13
Frame Time: 0.033333
-28.877955 82.973124 335.380668 0.147502 0.672372 32.599577 0.080373 0.155364 -32.598520 0.113835 0.056091 0.010487 9.286800 -3.468759 -1.122979 0.000000 0.000000 0.000000 -8.119068 24.858676 -1.029505 -14.555023 63.707262 19.426664 10.840551 37.085960 -22.108092 -33.287928 -37.949385 -37.196513 0.000000 0.000000 0.000000 0.000000 0.000000 0.000000 -24.138118 21.302529 15.323063 -71.124763 -5.252139 -3.111084 -15.168587 18.059656 -0.207110 9.795361 12.553036 14.468841 0.000000 0.000000 0.000000 0.000000 0.000000 0.000000 -0.098093 3.169329 -32.476595 0.083384 -2.133511 -0.341214 6.331075 -5.526719 -1.292492 0.000000 0.000000 0.000000 0.008354 1.288458 -32.212771 0.527811 -1.765931 -0.385066 2.612925 -1.540306 -0.836656 0.000000 0.000000 0.000000
-28.846315 82.972827 335.407078 0.168766 0.715888 32.357627 0.060230 0.149277 -32.356617 0.109246 0.051690 0.010390 9.152960 -2.950121 -0.967356 0.000000 0.000000 0.000000 -6.563677 26.653251 -1.334218 -26.631626 65.124297 25.757567 13.701300 31.161337 -14.569905 -37.372147 -35.231264 -41.149151 0.000000 0.000000 0.000000 0.000000 0.000000 0.000000 -25.903264 21.901877 16.359674 -69.939397 -3.507307 -1.989538 -14.739293 18.915136 -0.450929 8.685121 10.504367 12.962185 0.000000 0.000000 0.000000 0.000000 0.000000 0.000000 -0.191065 3.123247 -32.241682 0.081067 -2.071300 -0.333880 6.706482 -5.195198 -1.611236 0.000000 0.000000 0.000000 0.019361 1.360692 -31.946099 0.529727 -1.879496 -0.410279 0.143299 2.163167 -0.410480 0.000000 0.000000 0.000000
-28.811386 82.971747 335.418696 0.200345 0.759353 32.116062 0.053178 0.157083 -32.114818 0.105375 0.054415 0.010794 8.918831 -2.555279 -0.832558 0.000000 0.000000 0.000000 -5.281419 27.934385 -1.624563 -37.335118 67.410891 32.548986 13.127168 23.913345 -12.922854 -33.219811 -36.819278 -35.124920 0.000000 0.000000 0.000000 0.000000 0.000000 0.000000 -27.618196 22.377477 17.332940 -67.572470 -1.828215 -0.859570 -17.947242 18.658909 -1.546340 10.369518 9.036295 11.772327 0.000000 0.000000 0.000000 0.000000 0.000000 0.000000 -0.240888 3.104941 -31.997861 0.008049 -2.018782 -0.342342 6.726882 -5.344602 -1.545860 0.000000 0.000000 0.000000 0.017813 1.453974 -31.677647 -0.274278 -1.799567 -0.693326 4.047549 -2.754082 -0.654469 0.000000 0.000000 0.000000
-28.770994 82.969613 335.457339 0.217616 0.785934 32.116593 0.051983 0.168519 -32.115364 0.101704 0.059316 0.010732 8.816174 -2.187714 -0.710283 0.000000 0.000000 0.000000 -4.461487 28.844682 -1.831218 -43.497273 70.384393 38.107349 10.248437 17.321654 -16.531491 -26.858730 -30.652155 -27.085739 0.000000 0.000000 0.000000 0.000000 0.000000 0.000000 -29.019415 22.748689 18.141893 -66.116587 -1.038019 -0.652721 -18.103293 17.823043 -3.296468 12.289870 9.893732 12.634573 0.000000 0.000000 0.000000 0.000000 0.000000 0.000000 -0.226043 3.168072 -31.989828 -0.034871 -2.091342 -0.366271 6.744015 -5.562887 -1.447905 0.000000 0.000000 0.000000 0.039840 1.541875 -31.653838 -0.341591 -1.880029 -0.741703 1.324675 2.401563 -0.365282 0.000000 0.000000 0.000000
-28.721952 82.974765 335.487468 0.240225 0.805114 32.153528 0.043411 0.172456 -32.152194 0.096244 0.056700 0.010781 8.751656 -1.885034 -0.617970 0.000000 0.000000 0.000000 -3.960367 29.489028 -1.969604 -48.635094 71.973626 42.627918 8.125698 14.505694 -20.017011 -22.913196 -27.004732 -22.116612 0.000000 0.000000 0.000000 0.000000 0.000000 0.000000 -30.420683 23.145881 18.981111 -66.061295 -1.500782 -2.011033 -15.757371 23.173690 3.651422 12.242657 1.931821 5.125463 0.000000 0.000000 0.000000 0.000000 0.000000 0.000000 -0.215000 3.235479 -32.019354 -0.081208 -2.182025 -0.398383 6.783177 -5.669809 -1.381355 0.000000 0.000000 0.000000 0.059137 1.652923 -31.664481 -0.406375 -2.027726 -0.803997 1.605550 1.967104 -0.346606 0.000000 0.000000 0.000000
-28.665657 82.983379 335.489609 0.273977 0.833166 32.294404 0.020441 0.160655 -32.292788 0.086849 0.045352 0.010927 8.687380 -1.711080 -0.570951 0.000000 0.000000 0.000000 -3.921389 29.727406 -1.993823 -53.601030 72.321727 46.592581 9.268982 14.921637 -18.799232 -23.831106 -25.749431 -23.503567 0.000000 0.000000 0.000000 0.000000 0.000000 0.000000 -31.735645 23.536252 19.793434 -67.523590 -1.514760 -2.795107 -7.510844 24.777002 4.058192 7.948214 1.415114 4.103717 0.000000 0.000000 0.000000 0.000000 0.000000 0.000000 -0.216879 3.301700 -32.154075 -0.116644 -2.218094 -0.411650 6.841102 -5.716884 -1.378988 0.000000 0.000000 0.000000 0.030343 1.722688 -31.791046 -0.450543 -2.076193 -0.842822 -0.535691 6.276341 0.002185 0.000000 0.000000 0.000000
-28.592884 82.999003 335.453701 0.330492 0.862822 32.353598 -0.010148 0.133303 -32.350976 0.079336 0.029420 0.012382 8.605758 -1.679682 -0.574985 0.000000 0.000000 0.000000 -4.553667 29.841635 -1.879928 -57.717256 71.570303 49.564393 12.421209 16.662964 -13.914270 -26.725369 -29.930784 -27.301271 0.000000 0.000000 0.000000 0.000000 0.000000 0.000000 -32.851471 23.875235 20.484935 -67.558743 -1.605842 -3.594873 -5.486811 20.835542 -0.751898 6.081505 6.097816 8.015110 0.000000 0.000000 0.000000 0.000000 0.000000 0.000000 -0.311717 3.344147 -32.219829 -0.078476 -2.179827 -0.393142 6.789013 -5.642923 -1.389085 0.000000 0.000000 0.000000 -0.057384 1.809486 -31.839694 -0.439934 -2.090414 -0.866657 -4.368191 13.690543 0.950317 0.000000 0.000000 0.000000
-28.521763 83.006117 335.427581 0.366373 0.893761 32.483672 -0.043449 0.110715 -32.480784 0.062521 0.012668 0.011993 8.671487 -1.716890 -0.597927 0.000000 0.000000 0.000000 -5.890124 29.645294 -1.598462 -56.656323 69.633088 48.147601 15.509868 22.029321 -8.958436 -32.916549 -33.995720 -36.291444 0.000000 0.000000 0.000000 0.000000 0.000000 0.000000 -33.474450 24.026411 20.863490 -68.478464 -2.540103 -5.274679 -3.890698 19.387532 -2.077098 6.802778 9.314527 11.086579 0.000000 0.000000 0.000000 0.000000 0.000000 0.000000 -0.374246 3.387113 -32.354202 -0.035532 -2.182886 -0.381842 6.747564 -5.738020 -1.344143 0.000000 0.000000 0.000000 -0.148164 1.862605 -31.965608 -0.416679 -2.066818 -0.879895 -11.790948 25.573479 4.019700 0.000000 0.000000 0.000000
-28.455618 83.004036 335.405376 0.370629 0.949392 32.623582 -0.069607 0.101663 -32.621524 0.040787 0.002185 0.009582 8.889099 -1.707453 -0.588422 0.000000 0.000000 0.000000 -6.185390 29.388115 -1.522768 -61.897221 68.800595 51.526775 17.543275 23.594481 -4.978398 -35.875165 -34.263233 -40.209158 0.000000 0.000000 0.000000 0.000000 0.000000 0.000000 -33.643026 23.877103 20.871442 -69.757204 -4.045907 -7.410059 -3.495085 21.786653 1.344812 11.452630 8.515276 10.575507 0.000000 0.000000 0.000000 0.000000 0.000000 0.000000 -0.429831 3.376459 -32.499675 0.002762 -2.186936 -0.374851 6.736804 -5.918886 -1.277145 0.000000 0.000000 0.000000 -0.259570 1.846021 -32.111060 -0.348784 -2.010194 -0.872116 -16.204359 31.903864 6.393371 0.000000 0.000000 0.000000
-28.403736 82.990302 335.400009 0.358383 0.998806 32.728764 -0.092144 0.101934 -32.728044 0.018040 -0.005441 0.006248 9.126708 -1.667418 -0.566067 0.000000 0.000000 0.000000 -6.235949 28.996004 -1.487333 -68.759429 67.894588 55.915819 19.267768 24.329990 -1.071284 -38.199994 -32.039368 -44.240203 0.000000 0.000000 0.000000 0.000000 0.000000 0.000000 -33.670927 23.350915 20.594467 -69.505578 -5.303200 -8.534992 -6.293694 21.957513 2.797236 13.079402 10.031117 12.158781 0.000000 0.000000 0.000000 0.000000 0.000000 0.000000 -0.478193 3.349121 -32.611718 0.063339 -2.186065 -0.360400 6.696810 -6.325435 -1.134388 0.000000 0.000000 0.000000 -0.354687 1.805244 -32.225336 -0.257050 -1.952974 -0.850754 -17.293859 30.635747 7.079662 0.000000 0.000000 0.000000
-28.372561 82.966612 335.389099 0.342117 1.061366 32.713009 -0.111684 0.117924 -32.714138 0.000725 -0.001619 0.002703 9.254136 -1.688607 -0.538935 0.000000 0.000000 0.000000 -6.622679 29.840038 -1.432282 -72.203292 66.154148 56.777865 21.827323 24.256216 4.537833 -39.112077 -28.782117 -43.651600 0.000000 0.000000 0.000000 0.000000 0.000000 0.000000 -33.600522 22.714490 20.207646 -69.613757 -6.023920 -8.792039 -7.237913 24.140162 6.012968 11.785229 1.444223 3.239143 0.000000 0.000000 0.000000 0.000000 0.000000 0.000000 -0.530602 3.295311 -32.601666 0.117490 -2.191134 -0.348904 6.706276 -6.779246 -1.002710 0.000000 0.000000 0.000000 -0.450658 1.743016 -32.219305 -0.163324 -1.803488 -0.810863 -20.348705 32.628255 8.875694 0.000000 0.000000 0.000000
-28.331560 82.946306 335.397486 0.326940 1.113995 32.613002 -0.119838 0.135149 -32.615556 -0.008228 0.006053 0.000261 9.332699 -1.617075 -0.486043 0.000000 0.000000 0.000000 -7.300599 31.766307 -1.342432 -73.332245 64.222450 55.459615 25.488375 24.639075 12.465037 -42.690220 -24.314634 -46.646873 0.000000 0.000000 0.000000 0.000000 0.000000 0.000000 -33.469989 22.001260 19.736967 -68.279088 -6.353355 -8.186023 -13.028172 25.391309 9.612058 13.059887 -5.544416 -3.986212 0.000000 0.000000 0.000000 0.000000 0.000000 0.000000 -0.563751 3.246710 -32.503763 0.093989 -2.193294 -0.361061 6.697852 -7.218505 -0.814221 0.000000 0.000000 0.000000 -0.546537 1.717965 -32.124056 -0.074440 -1.724651 -0.791205 -19.346405 31.215242 8.234299 0.000000 0.000000 0.000000
-28.295178 82.943456 335.421844 0.289940 1.146381 32.453536 -0.121244 0.151237 -32.457617 -0.009260 0.012860 -0.002063 9.335553 -1.441666 -0.409199 0.000000 0.000000 0.000000 -8.248696 33.817983 -1.159318 -72.240183 62.727082 53.150869 28.983951 24.901433 19.780272 -46.744721 -18.535141 -51.289123 0.000000 0.000000 0.000000 0.000000 0.000000 0.000000 -33.585357 21.464079 19.486188 -66.060529 -5.142963 -5.691768 -18.500341 24.100365 8.724266 15.644249 -7.490078 -6.024755 0.000000 0.000000 0.000000 0.000000 0.000000 0.000000 -0.550186 3.192707 -32.342275 -0.057926 -2.122283 -0.395159 7.082509 -7.129026 -0.967470 0.000000 0.000000 0.000000 -0.618414 1.675270 -31.973417 0.006574 -1.630049 -0.767536 -15.278964 25.916995 5.895909 0.000000 0.000000 0.000000
